<?xml version="1.0" encoding="utf-8"?>
<svg version="1.1" x="0px" y="0px" viewBox="0 0 1050 200" style="enable-background:new 0 0 1050 200;" xmlns="http://www.w3.org/2000/svg" xmlns:bx="https://boxy-svg.com">
  <defs>
    <bx:grid x="0" y="0" width="39.579" height="22.315"/>
  </defs>
  <style type="text/css">
	.st0{fill:#009CDE;}
	.st1{fill:#FFFFFF;}
	.st2{filter:url(#Adobe_OpacityMaskFilter);}
	.st3{opacity:0.678;mask:url(#e_1_);fill:#FFFFFF;enable-background:new    ;}
	.st4{filter:url(#Adobe_OpacityMaskFilter_1_);}
	.st5{opacity:0.696;mask:url(#g_1_);fill:#FFFFFF;enable-background:new    ;}
	.st6{filter:url(#Adobe_OpacityMaskFilter_2_);}
	.st7{mask:url(#i_1_);fill:#FFFFFF;}
</style>
  <g id="button">
    <path id="blue" class="st0" d="M1018,200H32c-17.7,0-32-14.3-32-32L0,32C0,14.3,14.3,0,32,0l986,0c17.7,0,32,14.3,32,32v136 C1050,185.7,1035.7,200,1018,200z"/>
  </g>
  <path id="heart_2_" class="st1" d="M 154.3 89.2 C 150 89.2 145.8 91.3 143.5 95.9 C 141.2 91.3 137 89.2 132.7 89.2 C 126 89.2 120 93.9 120 102.3 C 120 116.5 139.4 123.7 143.5 132.2 C 147.6 123.7 167 116.5 167 102.3 C 167 93.3 160.3 89.2 154.3 89.2 Z M 150.2 99.2 C 153.2 99.2 155.9 101.2 155.9 105.2 C 155.9 111.5 147.6 115.8 143.1 120.4 C 138.7 115.8 130.3 111.5 130.3 105.2 C 130.3 101.3 132.9 99.2 136 99.2 C 140.1 99.2 142.2 103.8 143 106 C 144 103.8 146.2 99.2 150.2 99.2 Z"/>
  <g id="PayPal">
    <path class="st1" d="M888.7,89.7c-1.2,8-7.3,8-13.2,8h-3.4l2.4-14.9c0.1-0.9,0.9-1.6,1.8-1.6h1.5c4,0,7.8,0,9.7,2.3 C888.8,84.9,889.1,86.9,888.7,89.7 M886.1,68.9h-22.2c-1.5,0-2.8,1.1-3,2.6l-9,56.9c-0.2,1,0.5,2,1.5,2.1c0.1,0,0.2,0,0.3,0h11.4 c1.1,0,2-0.8,2.1-1.8l2.5-16.1c0.2-1.5,1.5-2.6,3.1-2.6h7c14.6,0,23.1-7.1,25.3-21.1c1-6.1,0-11-2.8-14.3 C899.2,70.9,893.6,68.9,886.1,68.9 M730.2,89.7c-1.2,8-7.3,8-13.2,8h-3.4l2.4-14.9c0.1-0.9,0.9-1.6,1.8-1.6h1.5c4,0,7.8,0,9.7,2.3 C730.3,84.9,730.7,86.9,730.2,89.7 M727.7,68.9h-22.2c-1.5,0-2.8,1.1-3.1,2.6l-9,56.9c-0.2,1,0.5,2,1.5,2.1c0.1,0,0.2,0,0.3,0h10.6 c1.5,0,2.8-1.1,3-2.6l2.4-15.4c0.2-1.5,1.5-2.6,3-2.6h7c14.6,0,23.1-7.1,25.3-21.1c1-6.1,0-11-2.8-14.3 C740.7,70.9,735.1,68.9,727.7,68.9 M779.3,110.2c-1,6.1-5.9,10.2-12,10.2c-3.1,0-5.6-1-7.1-2.9c-1.6-1.9-2.2-4.5-1.7-7.5 c1-6,5.9-10.2,11.9-10.2c3,0,5.5,1,7.1,2.9C779.1,104.5,779.7,107.2,779.3,110.2 M794.1,89.5h-10.6c-0.9,0-1.7,0.7-1.8,1.6l-0.5,3 l-0.7-1.1c-2.3-3.3-7.4-4.5-12.6-4.5c-11.8,0-21.8,8.9-23.7,21.4c-1,6.2,0.4,12.2,4,16.3c3.2,3.8,7.9,5.4,13.4,5.4 c9.5,0,14.7-6.1,14.7-6.1l-0.5,3c-0.2,1,0.5,2,1.5,2.1c0.1,0,0.2,0,0.3,0h9.6c1.5,0,2.8-1.1,3-2.6l5.8-36.4c0.2-1-0.5-2-1.5-2.1 C794.3,89.5,794.2,89.5,794.1,89.5 M937.7,110.2c-1,6.1-5.9,10.2-12,10.2c-3.1,0-5.6-1-7.1-2.9c-1.6-1.9-2.2-4.5-1.7-7.5 c1-6,5.9-10.2,11.9-10.2c3,0,5.5,1,7.1,2.9C937.5,104.5,938.2,107.2,937.7,110.2 M952.5,89.5h-10.6c-0.9,0-1.7,0.7-1.8,1.6l-0.5,3 l-0.7-1.1c-2.3-3.3-7.4-4.5-12.6-4.5c-11.8,0-21.8,8.9-23.7,21.4c-1,6.2,0.4,12.2,4,16.3c3.2,3.8,7.9,5.4,13.4,5.4 c9.5,0,14.7-6.1,14.7-6.1l-0.5,3c-0.2,1,0.5,2,1.5,2.1c0.1,0,0.2,0,0.3,0h9.6c1.5,0,2.8-1.1,3-2.6l5.8-36.4c0.2-1-0.5-2-1.5-2.1 C952.7,89.5,952.6,89.5,952.5,89.5 M850.7,89.5H840c-1,0-2,0.5-2.6,1.4l-14.7,21.7l-6.3-20.9c-0.4-1.3-1.6-2.2-3-2.2H803 c-1,0-1.9,0.8-1.9,1.9c0,0.2,0,0.4,0.1,0.6l11.8,34.5L802,142.1c-0.9,1.2,0,2.9,1.5,2.9h10.7c1,0,2-0.5,2.5-1.3l35.6-51.3 C853.1,91.1,852.2,89.5,850.7,89.5 M965.1,70.5l-9.1,58c-0.2,1,0.5,2,1.5,2.1c0.1,0,0.2,0,0.3,0h9.2c1.5,0,2.8-1.1,3-2.6l9-56.9 c0.2-1-0.5-2-1.5-2.1c-0.1,0-0.2,0-0.3,0h-10.3C966,68.9,965.2,69.6,965.1,70.5"/>
    <g>
      <defs>
        <filter id="Adobe_OpacityMaskFilter" filterUnits="userSpaceOnUse" x="575" y="47" width="83.1" height="98">
          <feColorMatrix type="matrix" values="1 0 0 0 0  0 1 0 0 0  0 0 1 0 0  0 0 0 1 0"/>
        </filter>
      </defs>
      <mask maskUnits="userSpaceOnUse" x="575" y="47" width="83.1" height="98" id="e_1_">
        <g class="st2">
          <path id="d_1_" class="st1" d="M575,47h83.1v98H575V47z"/>
        </g>
      </mask>
      <path class="st3" d="M649.9,71.9c1.2-7.6,0-12.8-4.1-17.5c-4.5-5.2-12.7-7.4-23.2-7.4H592c-2.1,0-4,1.6-4.3,3.7L575,131.1 c-0.2,1.4,0.7,2.8,2.2,3c0.1,0,0.3,0,0.4,0h18.8l-1.3,8.2c-0.2,1.2,0.7,2.4,1.9,2.6c0.1,0,0.2,0,0.4,0h15.9c1.9,0,3.5-1.4,3.8-3.2 l0.2-0.8l3-18.9l0.2-1c0.3-1.9,1.9-3.2,3.8-3.2h2.4c15.4,0,27.4-6.2,30.9-24.3c1.5-7.5,0.7-13.8-3.2-18.3 C653,73.9,651.6,72.8,649.9,71.9"/>
      <defs>
        <filter id="Adobe_OpacityMaskFilter_1_" filterUnits="userSpaceOnUse" x="575" y="47" width="75.3" height="87.1">
          <feColorMatrix type="matrix" values="1 0 0 0 0  0 1 0 0 0  0 0 1 0 0  0 0 0 1 0"/>
        </filter>
      </defs>
      <mask maskUnits="userSpaceOnUse" x="575" y="47" width="75.3" height="87.1" id="g_1_">
        <g class="st4">
          <path id="f_1_" class="st1" d="M575,47h75.3v87.1H575V47z"/>
        </g>
      </mask>
      <path class="st5" d="M649.9,71.9c1.2-7.6,0-12.8-4.1-17.5c-4.5-5.2-12.7-7.4-23.2-7.4H592c-2.1,0-4,1.6-4.3,3.7L575,131.1 c-0.2,1.4,0.7,2.8,2.2,3c0.1,0,0.3,0,0.4,0h18.8l4.7-30l-0.1,0.9c0.3-2.1,2.1-3.7,4.3-3.7h8.9c17.6,0,31.3-7.1,35.3-27.8 C649.7,73.1,649.8,72.5,649.9,71.9"/>
      <defs>
        <filter id="Adobe_OpacityMaskFilter_2_" filterUnits="userSpaceOnUse" x="575" y="47" width="75.3" height="87.1">
          <feColorMatrix type="matrix" values="1 0 0 0 0  0 1 0 0 0  0 0 1 0 0  0 0 0 1 0"/>
        </filter>
      </defs>
      <mask maskUnits="userSpaceOnUse" x="575" y="47" width="75.3" height="87.1" id="i_1_">
        <g class="st6">
          <path id="h_1_" class="st1" d="M575,47h75.3v87.1H575V47z"/>
        </g>
      </mask>
      <path class="st7" d="M606.2,72c0.3-1.9,1.9-3.2,3.8-3.2h23.9c2.8,0,5.5,0.2,7.9,0.6c0.7,0.1,1.4,0.2,2,0.4 c0.9,0.2,1.9,0.5,2.8,0.8c1.1,0.4,2.2,0.8,3.3,1.4c1.2-7.6,0-12.8-4.1-17.5c-4.5-5.2-12.7-7.4-23.2-7.4H592c-2.1,0-4,1.6-4.3,3.7 L575,131.1c-0.2,1.4,0.7,2.8,2.2,3c0.1,0,0.3,0,0.4,0h18.8l4.7-30L606.2,72L606.2,72z"/>
    </g>
  </g>
  <text style="fill: rgb(255, 255, 255); font-family: Ubuntu; font-size: 74px; font-weight: 500; word-spacing: 7px; white-space: pre;" x="66.841" y="131.765">D  nate with</text>
</svg>